<svg width="339" height="204" viewBox="0 0 339 204" fill="none" xmlns="http://www.w3.org/2000/svg">
<path d="M73.9052 204L0 100.406L139.777 0L268.308 30.2812L339 160.969L298.834 192.844H220.109L192.796 145.031L163.877 135.469L73.9052 204Z" fill="#439ECC"/>
<path d="M148.776 95C148.579 95 148.394 94.9257 148.222 94.7771C148.074 94.6038 148 94.4181 148 94.22C148 94.0714 148.012 93.96 148.037 93.8857L156.726 70.04C156.8 69.7429 156.96 69.4952 157.207 69.2971C157.453 69.099 157.774 69 158.168 69H163.64C164.035 69 164.355 69.099 164.602 69.2971C164.848 69.4952 165.008 69.7429 165.082 70.04L173.734 93.8857L173.808 94.22C173.808 94.4181 173.722 94.6038 173.549 94.7771C173.401 94.9257 173.217 95 172.995 95H168.447C167.855 95 167.461 94.74 167.264 94.22L165.822 90.4314H155.95L154.544 94.22C154.347 94.74 153.941 95 153.324 95H148.776ZM164.343 85.0829L160.904 75.2771L157.465 85.0829H164.343Z" fill="white"/>
<path d="M182.787 95C182.541 95 182.319 94.9133 182.122 94.74C181.949 94.5419 181.863 94.319 181.863 94.0714V76.3914L176.798 80.2914C176.625 80.44 176.44 80.5143 176.243 80.5143C175.972 80.5143 175.725 80.3657 175.504 80.0686L173.322 77.2086C173.199 77.0105 173.137 76.8248 173.137 76.6514C173.137 76.3048 173.285 76.0448 173.581 75.8714L182.085 69.26C182.356 69.0867 182.652 69 182.972 69H187.594C187.865 69 188.087 69.0867 188.26 69.26C188.432 69.4333 188.519 69.6562 188.519 69.9286V94.0714C188.519 94.319 188.432 94.5419 188.26 94.74C188.087 94.9133 187.865 95 187.594 95H182.787Z" fill="white"/>
<path d="M193.956 86.5314C193.685 86.5314 193.463 86.4448 193.291 86.2714C193.118 86.0981 193.032 85.8752 193.032 85.6029V82.1114C193.032 81.839 193.118 81.6162 193.291 81.4429C193.463 81.2695 193.685 81.1829 193.956 81.1829H205.529C205.801 81.1829 206.022 81.2695 206.195 81.4429C206.392 81.6162 206.491 81.839 206.491 82.1114V85.6029C206.491 85.8752 206.392 86.0981 206.195 86.2714C206.022 86.4448 205.801 86.5314 205.529 86.5314H193.956Z" fill="white"/>
<path d="M208.968 95C208.771 95 208.586 94.9257 208.414 94.7771C208.266 94.6038 208.192 94.4181 208.192 94.22C208.192 94.0714 208.204 93.96 208.229 93.8857L216.918 70.04C216.992 69.7429 217.152 69.4952 217.398 69.2971C217.645 69.099 217.965 69 218.36 69H223.832C224.226 69 224.547 69.099 224.793 69.2971C225.04 69.4952 225.2 69.7429 225.274 70.04L233.926 93.8857L234 94.22C234 94.4181 233.914 94.6038 233.741 94.7771C233.593 94.9257 233.408 95 233.187 95H228.639C228.047 95 227.653 94.74 227.456 94.22L226.014 90.4314H216.141L214.736 94.22C214.539 94.74 214.132 95 213.516 95H208.968ZM224.535 85.0829L221.096 75.2771L217.657 85.0829H224.535Z" fill="white"/>
</svg>
