<svg width="309" height="211" viewBox="0 0 309 211" fill="none" xmlns="http://www.w3.org/2000/svg">
<path d="M230.954 0L132.201 42.8346L156.093 87.2556H0V211H309V144.368L230.954 0Z" fill="#439ECC"/>
<path d="M82.7861 162C82.5864 162 82.3993 161.923 82.2246 161.769C82.0749 161.589 82 161.396 82 161.19C82 161.036 82.0125 160.92 82.0374 160.843L90.8337 136.08C90.9086 135.771 91.0708 135.514 91.3203 135.309C91.5699 135.103 91.8943 135 92.2936 135H97.8334C98.2326 135 98.557 135.103 98.8066 135.309C99.0561 135.514 99.2183 135.771 99.2932 136.08L108.052 160.843L108.127 161.19C108.127 161.396 108.04 161.589 107.865 161.769C107.715 161.923 107.528 162 107.303 162H102.699C102.101 162 101.701 161.73 101.502 161.19L100.042 157.256H90.0477L88.6253 161.19C88.4257 161.73 88.0139 162 87.3901 162H82.7861ZM98.5445 151.701L95.0635 141.519L91.5824 151.701H98.5445Z" fill="white"/>
<path d="M117.217 162C116.968 162 116.743 161.91 116.543 161.73C116.369 161.524 116.281 161.293 116.281 161.036V142.676L111.153 146.726C110.979 146.88 110.791 146.957 110.592 146.957C110.317 146.957 110.068 146.803 109.843 146.494L107.635 143.524C107.51 143.319 107.448 143.126 107.448 142.946C107.448 142.586 107.597 142.316 107.897 142.136L116.506 135.27C116.78 135.09 117.08 135 117.404 135H122.083C122.358 135 122.582 135.09 122.757 135.27C122.932 135.45 123.019 135.681 123.019 135.964V161.036C123.019 161.293 122.932 161.524 122.757 161.73C122.582 161.91 122.358 162 122.083 162H117.217Z" fill="white"/>
<path d="M128.524 153.206C128.249 153.206 128.025 153.116 127.85 152.936C127.675 152.756 127.588 152.524 127.588 152.241V148.616C127.588 148.333 127.675 148.101 127.85 147.921C128.025 147.741 128.249 147.651 128.524 147.651H140.24C140.514 147.651 140.739 147.741 140.914 147.921C141.113 148.101 141.213 148.333 141.213 148.616V152.241C141.213 152.524 141.113 152.756 140.914 152.936C140.739 153.116 140.514 153.206 140.24 153.206H128.524Z" fill="white"/>
<path d="M146.739 162C146.49 162 146.265 161.91 146.065 161.73C145.891 161.524 145.803 161.293 145.803 161.036V135.964C145.803 135.681 145.891 135.45 146.065 135.27C146.265 135.09 146.49 135 146.739 135H158.156C161.3 135 163.633 135.669 165.155 137.006C166.702 138.317 167.476 140.194 167.476 142.637C167.476 143.923 167.152 145.016 166.503 145.916C165.879 146.79 165.168 147.433 164.369 147.844C165.392 148.333 166.253 149.117 166.952 150.197C167.651 151.277 168 152.486 168 153.823C168 156.394 167.177 158.4 165.53 159.84C163.883 161.28 161.537 162 158.492 162H146.739ZM157.407 145.723C158.405 145.723 159.166 145.466 159.69 144.951C160.214 144.411 160.476 143.704 160.476 142.83C160.476 141.981 160.214 141.3 159.69 140.786C159.166 140.271 158.405 140.014 157.407 140.014H152.541V145.723H157.407ZM157.744 156.986C158.767 156.986 159.566 156.677 160.139 156.06C160.713 155.443 161 154.697 161 153.823C161 152.897 160.713 152.139 160.139 151.547C159.566 150.93 158.767 150.621 157.744 150.621H152.541V156.986H157.744Z" fill="white"/>
</svg>
