<svg width="336" height="305" viewBox="0 0 336 305" fill="none" xmlns="http://www.w3.org/2000/svg">
<path d="M273.896 93.724L199.052 0L0 149.323L27.0711 196.979L256.379 305H313.706L336 241.458L313.706 230.339L336 182.682L227.716 131.849L273.896 93.724Z" fill="#439ECC"/>
<path d="M172.784 222.625C172.585 222.625 172.398 222.55 172.224 222.4C172.075 222.225 172 222.037 172 221.837C172 221.687 172.012 221.575 172.037 221.5L180.807 197.425C180.881 197.125 181.043 196.875 181.292 196.675C181.541 196.475 181.864 196.375 182.262 196.375H187.785C188.183 196.375 188.506 196.475 188.755 196.675C189.004 196.875 189.166 197.125 189.24 197.425L197.972 221.5L198.047 221.837C198.047 222.037 197.96 222.225 197.786 222.4C197.636 222.55 197.45 222.625 197.226 222.625H192.636C192.039 222.625 191.641 222.362 191.442 221.837L189.987 218.013H180.023L178.605 221.837C178.406 222.362 177.996 222.625 177.374 222.625H172.784ZM188.494 212.612L185.023 202.713L181.553 212.612H188.494Z" fill="white"/>
<path d="M207.109 222.625C206.861 222.625 206.637 222.538 206.438 222.363C206.263 222.163 206.176 221.937 206.176 221.687V203.837L201.064 207.775C200.89 207.925 200.703 208 200.504 208C200.231 208 199.982 207.85 199.758 207.55L197.556 204.662C197.432 204.462 197.37 204.275 197.37 204.1C197.37 203.75 197.519 203.487 197.817 203.312L206.4 196.638C206.674 196.462 206.972 196.375 207.296 196.375H211.96C212.234 196.375 212.458 196.462 212.632 196.638C212.806 196.812 212.893 197.037 212.893 197.313V221.687C212.893 221.937 212.806 222.163 212.632 222.363C212.458 222.538 212.234 222.625 211.96 222.625H207.109Z" fill="white"/>
<path d="M218.382 214.075C218.108 214.075 217.884 213.987 217.71 213.812C217.536 213.637 217.449 213.412 217.449 213.137V209.613C217.449 209.338 217.536 209.113 217.71 208.938C217.884 208.763 218.108 208.675 218.382 208.675H230.062C230.335 208.675 230.559 208.763 230.733 208.938C230.932 209.113 231.032 209.338 231.032 209.613V213.137C231.032 213.412 230.932 213.637 230.733 213.812C230.559 213.987 230.335 214.075 230.062 214.075H218.382Z" fill="white"/>
<path d="M246.427 223C242.87 223 240.083 222.137 238.068 220.412C236.078 218.662 235.021 216.137 234.896 212.838C234.872 212.163 234.859 211.062 234.859 209.537C234.859 207.987 234.872 206.863 234.896 206.163C235.021 202.913 236.103 200.413 238.143 198.662C240.183 196.887 242.944 196 246.427 196C248.616 196 250.582 196.375 252.323 197.125C254.065 197.85 255.433 198.9 256.428 200.275C257.448 201.625 257.97 203.212 257.995 205.037V205.113C257.995 205.313 257.908 205.488 257.734 205.638C257.585 205.763 257.411 205.825 257.212 205.825H252.174C251.851 205.825 251.602 205.763 251.428 205.638C251.253 205.488 251.104 205.225 250.98 204.85C250.632 203.575 250.084 202.687 249.338 202.188C248.592 201.662 247.609 201.4 246.39 201.4C243.454 201.4 241.937 203.05 241.837 206.35C241.812 207.025 241.8 208.063 241.8 209.463C241.8 210.863 241.812 211.925 241.837 212.65C241.937 215.95 243.454 217.6 246.39 217.6C247.609 217.6 248.604 217.337 249.375 216.812C250.146 216.262 250.681 215.375 250.98 214.15C251.079 213.775 251.216 213.525 251.39 213.4C251.564 213.25 251.826 213.175 252.174 213.175H257.212C257.436 213.175 257.622 213.25 257.771 213.4C257.946 213.55 258.02 213.737 257.995 213.962C257.97 215.787 257.448 217.387 256.428 218.762C255.433 220.112 254.065 221.163 252.323 221.913C250.582 222.638 248.616 223 246.427 223Z" fill="white"/>
</svg>
