<svg width="368" height="239" viewBox="0 0 368 239" fill="none" xmlns="http://www.w3.org/2000/svg">
<path d="M143.469 128.167L104.265 79L0 157.333L14.1801 182.333L134.294 239H164.322L176 205.667L164.322 199.833L176 174.833L119.28 148.167L143.469 128.167Z" fill="#439ECC"/>
<path d="M327.082 123L275.309 145.534L287.835 168.902H206V234H368V198.947L327.082 123Z" fill="#439ECC"/>
<path d="M173.806 107L135 52.6641L208.393 0L275.882 15.8828L313 84.4297L291.91 101.148H250.573L236.232 76.0703L221.047 71.0547L173.806 107Z" fill="#439ECC"/>
<path d="M90.41 195.806C90.3059 195.806 90.2083 195.767 90.1172 195.689C90.0391 195.598 90 195.501 90 195.397C90 195.319 90.0065 195.261 90.0195 195.222L94.6082 182.739C94.6472 182.583 94.7318 182.454 94.862 182.35C94.9922 182.246 95.1614 182.194 95.3697 182.194H98.2595C98.4678 182.194 98.637 182.246 98.7672 182.35C98.8974 182.454 98.982 182.583 99.0211 182.739L103.59 195.222L103.629 195.397C103.629 195.501 103.584 195.598 103.493 195.689C103.414 195.767 103.317 195.806 103.2 195.806H100.798C100.486 195.806 100.277 195.669 100.173 195.397L99.4116 193.414H94.1981L93.4561 195.397C93.352 195.669 93.1372 195.806 92.8118 195.806H90.41ZM98.6305 190.614L96.8146 185.481L94.9987 190.614H98.6305Z" fill="white"/>
<path d="M108.371 195.806C108.241 195.806 108.124 195.76 108.02 195.669C107.929 195.566 107.883 195.449 107.883 195.319V186.064L105.208 188.106C105.117 188.183 105.019 188.222 104.915 188.222C104.772 188.222 104.642 188.144 104.525 187.989L103.372 186.492C103.307 186.388 103.275 186.291 103.275 186.2C103.275 186.019 103.353 185.882 103.509 185.792L108 182.331C108.143 182.24 108.3 182.194 108.469 182.194H110.91C111.053 182.194 111.17 182.24 111.261 182.331C111.352 182.421 111.398 182.538 111.398 182.681V195.319C111.398 195.449 111.352 195.566 111.261 195.669C111.17 195.76 111.053 195.806 110.91 195.806H108.371Z" fill="white"/>
<path d="M114.269 191.372C114.126 191.372 114.009 191.327 113.918 191.236C113.827 191.145 113.781 191.029 113.781 190.886V189.058C113.781 188.916 113.827 188.799 113.918 188.708C114.009 188.618 114.126 188.572 114.269 188.572H120.381C120.524 188.572 120.641 188.618 120.733 188.708C120.837 188.799 120.889 188.916 120.889 189.058V190.886C120.889 191.029 120.837 191.145 120.733 191.236C120.641 191.327 120.524 191.372 120.381 191.372H114.269Z" fill="white"/>
<path d="M128.944 196C127.083 196 125.625 195.553 124.571 194.658C123.529 193.751 122.976 192.442 122.911 190.731C122.898 190.381 122.891 189.81 122.891 189.019C122.891 188.216 122.898 187.632 122.911 187.269C122.976 185.584 123.542 184.288 124.61 183.381C125.677 182.46 127.122 182 128.944 182C130.09 182 131.118 182.194 132.03 182.583C132.941 182.959 133.657 183.504 134.177 184.217C134.711 184.917 134.985 185.74 134.998 186.686V186.725C134.998 186.829 134.952 186.919 134.861 186.997C134.783 187.062 134.692 187.094 134.588 187.094H131.951C131.782 187.094 131.652 187.062 131.561 186.997C131.47 186.919 131.392 186.783 131.327 186.589C131.144 185.928 130.858 185.468 130.468 185.208C130.077 184.936 129.563 184.8 128.925 184.8C127.389 184.8 126.595 185.656 126.543 187.367C126.53 187.717 126.523 188.255 126.523 188.981C126.523 189.706 126.53 190.257 126.543 190.633C126.595 192.344 127.389 193.2 128.925 193.2C129.563 193.2 130.083 193.064 130.487 192.792C130.891 192.506 131.17 192.046 131.327 191.411C131.379 191.217 131.45 191.087 131.541 191.022C131.633 190.944 131.769 190.906 131.951 190.906H134.588C134.705 190.906 134.802 190.944 134.88 191.022C134.972 191.1 135.011 191.197 134.998 191.314C134.985 192.26 134.711 193.09 134.177 193.803C133.657 194.503 132.941 195.047 132.03 195.436C131.118 195.812 130.09 196 128.944 196Z" fill="white"/>
<path d="M249.411 208C249.307 208 249.209 207.96 249.118 207.88C249.039 207.787 249 207.687 249 207.58C249 207.5 249.007 207.44 249.02 207.4L253.622 194.56C253.661 194.4 253.746 194.267 253.877 194.16C254.007 194.053 254.177 194 254.386 194H257.285C257.494 194 257.664 194.053 257.794 194.16C257.925 194.267 258.01 194.4 258.049 194.56L262.632 207.4L262.671 207.58C262.671 207.687 262.625 207.787 262.534 207.88C262.456 207.96 262.358 208 262.24 208H259.831C259.518 208 259.309 207.86 259.204 207.58L258.44 205.54H253.211L252.467 207.58C252.362 207.86 252.147 208 251.82 208H249.411ZM257.657 202.66L255.836 197.38L254.014 202.66H257.657Z" fill="white"/>
<path d="M267.428 208C267.297 208 267.179 207.953 267.075 207.86C266.984 207.753 266.938 207.633 266.938 207.5V197.98L264.255 200.08C264.163 200.16 264.065 200.2 263.961 200.2C263.817 200.2 263.687 200.12 263.569 199.96L262.414 198.42C262.348 198.313 262.316 198.213 262.316 198.12C262.316 197.933 262.394 197.793 262.551 197.7L267.055 194.14C267.199 194.047 267.356 194 267.525 194H269.974C270.117 194 270.235 194.047 270.326 194.14C270.418 194.233 270.463 194.353 270.463 194.5V207.5C270.463 207.633 270.418 207.753 270.326 207.86C270.235 207.953 270.117 208 269.974 208H267.428Z" fill="white"/>
<path d="M273.344 203.44C273.2 203.44 273.083 203.393 272.991 203.3C272.9 203.207 272.854 203.087 272.854 202.94V201.06C272.854 200.913 272.9 200.793 272.991 200.7C273.083 200.607 273.2 200.56 273.344 200.56H279.474C279.618 200.56 279.735 200.607 279.827 200.7C279.931 200.793 279.984 200.913 279.984 201.06V202.94C279.984 203.087 279.931 203.207 279.827 203.3C279.735 203.393 279.618 203.44 279.474 203.44H273.344Z" fill="white"/>
<path d="M282.875 208C282.745 208 282.627 207.953 282.523 207.86C282.431 207.753 282.385 207.633 282.385 207.5V194.5C282.385 194.353 282.431 194.233 282.523 194.14C282.627 194.047 282.745 194 282.875 194H288.849C290.494 194 291.715 194.347 292.511 195.04C293.321 195.72 293.726 196.693 293.726 197.96C293.726 198.627 293.556 199.193 293.217 199.66C292.89 200.113 292.518 200.447 292.1 200.66C292.636 200.913 293.086 201.32 293.452 201.88C293.817 202.44 294 203.067 294 203.76C294 205.093 293.569 206.133 292.707 206.88C291.846 207.627 290.618 208 289.025 208H282.875ZM288.457 199.56C288.979 199.56 289.378 199.427 289.652 199.16C289.926 198.88 290.063 198.513 290.063 198.06C290.063 197.62 289.926 197.267 289.652 197C289.378 196.733 288.979 196.6 288.457 196.6H285.911V199.56H288.457ZM288.633 205.4C289.169 205.4 289.587 205.24 289.887 204.92C290.187 204.6 290.337 204.213 290.337 203.76C290.337 203.28 290.187 202.887 289.887 202.58C289.587 202.26 289.169 202.1 288.633 202.1H285.911V205.4H288.633Z" fill="white"/>
<path d="M213.406 50C213.303 50 213.206 49.96 213.116 49.88C213.039 49.7867 213 49.6867 213 49.58C213 49.5 213.006 49.44 213.019 49.4L217.566 36.56C217.605 36.4 217.688 36.2667 217.817 36.16C217.946 36.0533 218.114 36 218.32 36H221.184C221.39 36 221.558 36.0533 221.687 36.16C221.816 36.2667 221.9 36.4 221.938 36.56L226.466 49.4L226.504 49.58C226.504 49.6867 226.459 49.7867 226.369 49.88C226.291 49.96 226.195 50 226.079 50H223.699C223.389 50 223.183 49.86 223.08 49.58L222.325 47.54H217.16L216.424 49.58C216.321 49.86 216.108 50 215.786 50H213.406ZM221.551 44.66L219.752 39.38L217.953 44.66H221.551Z" fill="white"/>
<path d="M231.203 50C231.074 50 230.958 49.9533 230.855 49.86C230.764 49.7533 230.719 49.6333 230.719 49.5V39.98L228.069 42.08C227.978 42.16 227.881 42.2 227.778 42.2C227.636 42.2 227.507 42.12 227.391 41.96L226.25 40.42C226.185 40.3133 226.153 40.2133 226.153 40.12C226.153 39.9333 226.231 39.7933 226.385 39.7L230.835 36.14C230.977 36.0467 231.132 36 231.299 36H233.718C233.86 36 233.976 36.0467 234.066 36.14C234.156 36.2333 234.202 36.3533 234.202 36.5V49.5C234.202 49.6333 234.156 49.7533 234.066 49.86C233.976 49.9533 233.86 50 233.718 50H231.203Z" fill="white"/>
<path d="M237.047 45.44C236.905 45.44 236.789 45.3933 236.699 45.3C236.608 45.2067 236.563 45.0867 236.563 44.94V43.06C236.563 42.9133 236.608 42.7933 236.699 42.7C236.789 42.6067 236.905 42.56 237.047 42.56H243.103C243.244 42.56 243.361 42.6067 243.451 42.7C243.554 42.7933 243.606 42.9133 243.606 43.06V44.94C243.606 45.0867 243.554 45.2067 243.451 45.3C243.361 45.3933 243.244 45.44 243.103 45.44H237.047Z" fill="white"/>
<path d="M244.902 50C244.799 50 244.702 49.96 244.612 49.88C244.534 49.7867 244.496 49.6867 244.496 49.58C244.496 49.5 244.502 49.44 244.515 49.4L249.062 36.56C249.1 36.4 249.184 36.2667 249.313 36.16C249.442 36.0533 249.61 36 249.816 36H252.68C252.886 36 253.054 36.0533 253.183 36.16C253.312 36.2667 253.395 36.4 253.434 36.56L257.961 49.4L258 49.58C258 49.6867 257.955 49.7867 257.865 49.88C257.787 49.96 257.69 50 257.574 50H255.195C254.885 50 254.679 49.86 254.576 49.58L253.821 47.54H248.655L247.92 49.58C247.817 49.86 247.604 50 247.282 50H244.902ZM253.047 44.66L251.248 39.38L249.449 44.66H253.047Z" fill="white"/>
</svg>
