<svg width="400" height="278" viewBox="0 0 400 278" fill="none" xmlns="http://www.w3.org/2000/svg">
<path d="M97.5353 149.216L68 169.287L128.758 278H253.651L295 149.216L243.524 135L209.77 221.135H166.732L128.758 149.216L109.349 163.433L97.5353 149.216Z" fill="#439ECC"/>
<path d="M205.756 37.7308H199L205.756 72.9462L277.542 65.4L312.168 109L400 26.8308L378.887 0L205.756 15.9308V37.7308Z" fill="#439ECC"/>
<path d="M101.565 100.507L47.8446 136L0 43.0423L40.2902 16H162V48.1127H152.767V74.3099H83.9378L101.565 100.507Z" fill="#439ECC"/>
<path d="M45.4097 57C45.3057 57 45.2081 56.9635 45.1171 56.8906C45.039 56.8055 45 56.7144 45 56.6171C45 56.5442 45.0065 56.4895 45.0195 56.453L49.6045 44.7475C49.6435 44.6017 49.728 44.4801 49.8581 44.3829C49.9882 44.2856 50.1573 44.237 50.3654 44.237H53.2529C53.461 44.237 53.6301 44.2856 53.7602 44.3829C53.8903 44.4801 53.9748 44.6017 54.0138 44.7475L58.5793 56.453L58.6183 56.6171C58.6183 56.7144 58.5728 56.8055 58.4817 56.8906C58.4037 56.9635 58.3061 57 58.1891 57H55.7893C55.4771 57 55.269 56.8724 55.1649 56.6171L54.404 54.7574H49.1947L48.4533 56.6171C48.3493 56.8724 48.1347 57 47.8095 57H45.4097ZM53.6236 52.1318L51.8091 47.3184L49.9947 52.1318H53.6236Z" fill="white"/>
<path d="M60.0976 57C59.9545 57 59.8309 56.9575 59.7269 56.8724C59.6358 56.7873 59.5903 56.6779 59.5903 56.5442V55.2496C59.5903 54.885 59.7529 54.5872 60.0781 54.3562L62.1071 52.4965C63.2908 51.6456 64.1883 50.9832 64.7996 50.5091C65.4109 50.0351 65.8727 49.6036 66.1848 49.2146C66.497 48.8256 66.6531 48.4549 66.6531 48.1024C66.6531 47.1421 66.1458 46.662 65.1313 46.662C64.598 46.662 64.1883 46.8139 63.9021 47.1178C63.616 47.4095 63.4274 47.7803 63.3363 48.23C63.2583 48.5096 63.0371 48.6494 62.6729 48.6494H60.2341C60.1171 48.6494 60.0195 48.6129 59.9415 48.54C59.8634 48.467 59.8244 48.3759 59.8244 48.2665C59.8504 47.4885 60.0781 46.7775 60.5073 46.1332C60.9495 45.4769 61.5674 44.9603 62.3608 44.5835C63.1672 44.1945 64.0907 44 65.1313 44C66.2238 44 67.1603 44.1641 67.9408 44.4923C68.7212 44.8205 69.313 45.2824 69.7162 45.878C70.1194 46.4736 70.321 47.1664 70.321 47.9565C70.321 48.8074 70.0349 49.5853 69.4626 50.2903C68.9033 50.9832 68.0448 51.7368 66.8872 52.5512L65.0922 54.2468H70.1064C70.2495 54.2468 70.3666 54.2894 70.4576 54.3745C70.5617 54.4596 70.6137 54.569 70.6137 54.7027V56.5442C70.6137 56.6779 70.5617 56.7873 70.4576 56.8724C70.3666 56.9575 70.2495 57 70.1064 57H60.0976Z" fill="white"/>
<path d="M72.87 52.8429C72.727 52.8429 72.6099 52.8004 72.5189 52.7153C72.4278 52.6302 72.3823 52.5208 72.3823 52.3871V50.6732C72.3823 50.5395 72.4278 50.4301 72.5189 50.345C72.6099 50.2599 72.727 50.2174 72.87 50.2174H78.9768C79.1199 50.2174 79.237 50.2599 79.328 50.345C79.4321 50.4301 79.4841 50.5395 79.4841 50.6732V52.3871C79.4841 52.5208 79.4321 52.6302 79.328 52.7153C79.237 52.8004 79.1199 52.8429 78.9768 52.8429H72.87Z" fill="white"/>
<path d="M80.7914 57C80.6874 57 80.5898 56.9635 80.4988 56.8906C80.4207 56.8055 80.3817 56.7144 80.3817 56.6171C80.3817 56.5442 80.3882 56.4895 80.4012 56.453L84.9862 44.7475C85.0252 44.6017 85.1097 44.4801 85.2398 44.3829C85.3699 44.2856 85.539 44.237 85.7471 44.237H88.6346C88.8427 44.237 89.0118 44.2856 89.1419 44.3829C89.272 44.4801 89.3565 44.6017 89.3955 44.7475L93.961 56.453L94 56.6171C94 56.7144 93.9545 56.8055 93.8634 56.8906C93.7854 56.9635 93.6878 57 93.5708 57H91.171C90.8588 57 90.6507 56.8724 90.5467 56.6171L89.7857 54.7574H84.5765L83.8351 56.6171C83.731 56.8724 83.5164 57 83.1912 57H80.7914ZM89.0053 52.1318L87.1909 47.3184L85.3764 52.1318H89.0053Z" fill="white"/>
<path d="M270.406 48C270.303 48 270.206 47.9635 270.116 47.8906C270.039 47.8055 270 47.7144 270 47.6171C270 47.5442 270.006 47.4895 270.019 47.453L274.562 35.7475C274.601 35.6017 274.684 35.4801 274.813 35.3829C274.942 35.2856 275.11 35.237 275.316 35.237H278.177C278.383 35.237 278.551 35.2856 278.679 35.3829C278.808 35.4801 278.892 35.6017 278.931 35.7475L283.454 47.453L283.493 47.6171C283.493 47.7144 283.448 47.8055 283.357 47.8906C283.28 47.9635 283.184 48 283.068 48H280.69C280.381 48 280.174 47.8724 280.071 47.6171L279.317 45.7574H274.156L273.422 47.6171C273.318 47.8724 273.106 48 272.784 48H270.406ZM278.544 43.1318L276.746 38.3184L274.949 43.1318H278.544Z" fill="white"/>
<path d="M284.958 48C284.817 48 284.694 47.9575 284.591 47.8724C284.501 47.7873 284.456 47.6779 284.456 47.5442V46.2496C284.456 45.885 284.617 45.5872 284.939 45.3562L286.95 43.4965C288.122 42.6456 289.011 41.9832 289.617 41.5091C290.223 41.0351 290.68 40.6036 290.99 40.2146C291.299 39.8256 291.454 39.4549 291.454 39.1024C291.454 38.1421 290.951 37.662 289.946 37.662C289.417 37.662 289.011 37.8139 288.728 38.1178C288.444 38.4095 288.258 38.7803 288.167 39.23C288.09 39.5096 287.871 39.6494 287.51 39.6494H285.094C284.978 39.6494 284.881 39.6129 284.804 39.54C284.726 39.467 284.688 39.3759 284.688 39.2665C284.714 38.4885 284.939 37.7775 285.364 37.1332C285.803 36.4769 286.415 35.9603 287.201 35.5835C288 35.1945 288.915 35 289.946 35C291.028 35 291.956 35.1641 292.729 35.4923C293.503 35.8205 294.089 36.2824 294.488 36.878C294.888 37.4736 295.088 38.1664 295.088 38.9565C295.088 39.8074 294.804 40.5853 294.237 41.2903C293.683 41.9832 292.832 42.7368 291.686 43.5512L289.907 45.2468H294.875C295.017 45.2468 295.133 45.2894 295.223 45.3745C295.326 45.4596 295.378 45.569 295.378 45.7027V47.5442C295.378 47.6779 295.326 47.7873 295.223 47.8724C295.133 47.9575 295.017 48 294.875 48H284.958Z" fill="white"/>
<path d="M297.613 43.8429C297.471 43.8429 297.356 43.8004 297.265 43.7153C297.175 43.6302 297.13 43.5208 297.13 43.3871V41.6732C297.13 41.5395 297.175 41.4301 297.265 41.345C297.356 41.2599 297.471 41.2174 297.613 41.2174H303.664C303.806 41.2174 303.921 41.2599 304.012 41.345C304.115 41.4301 304.166 41.5395 304.166 41.6732V43.3871C304.166 43.5208 304.115 43.6302 304.012 43.7153C303.921 43.8004 303.806 43.8429 303.664 43.8429H297.613Z" fill="white"/>
<path d="M307.02 48C306.891 48 306.775 47.9575 306.672 47.8724C306.582 47.7751 306.537 47.6657 306.537 47.5442V35.6928C306.537 35.5591 306.582 35.4497 306.672 35.3647C306.775 35.2796 306.891 35.237 307.02 35.237H312.916C314.54 35.237 315.745 35.5531 316.531 36.1851C317.33 36.805 317.729 37.6924 317.729 38.8471C317.729 39.4549 317.562 39.9715 317.227 40.3969C316.905 40.8102 316.537 41.1141 316.125 41.3086C316.653 41.5395 317.098 41.9102 317.459 42.4208C317.82 42.9313 318 43.5026 318 44.1346C318 45.3502 317.575 46.2983 316.724 46.979C315.874 47.6597 314.662 48 313.09 48H307.02ZM312.529 40.3058C313.045 40.3058 313.438 40.1842 313.709 39.9411C313.979 39.6858 314.115 39.3516 314.115 38.9383C314.115 38.5372 313.979 38.2151 313.709 37.972C313.438 37.7288 313.045 37.6073 312.529 37.6073H310.016V40.3058H312.529ZM312.703 45.6297C313.232 45.6297 313.644 45.4839 313.941 45.1921C314.237 44.9004 314.385 44.5479 314.385 44.1346C314.385 43.6971 314.237 43.3385 313.941 43.0589C313.644 42.7672 313.232 42.6213 312.703 42.6213H310.016V45.6297H312.703Z" fill="white"/>
<path d="M162.413 257.806C162.308 257.806 162.21 257.768 162.118 257.69C162.039 257.6 162 257.503 162 257.4C162 257.322 162.007 257.264 162.02 257.225L166.644 244.794C166.683 244.639 166.769 244.51 166.9 244.407C167.031 244.303 167.201 244.252 167.411 244.252H170.324C170.533 244.252 170.704 244.303 170.835 244.407C170.966 244.51 171.052 244.639 171.091 244.794L175.696 257.225L175.735 257.4C175.735 257.503 175.689 257.6 175.597 257.69C175.518 257.768 175.42 257.806 175.302 257.806H172.882C172.567 257.806 172.357 257.671 172.252 257.4L171.485 255.425H166.231L165.483 257.4C165.378 257.671 165.162 257.806 164.834 257.806H162.413ZM170.697 252.636L168.867 247.524L167.037 252.636H170.697Z" fill="white"/>
<path d="M177.227 257.806C177.083 257.806 176.958 257.761 176.853 257.671C176.761 257.58 176.715 257.464 176.715 257.322V255.947C176.715 255.56 176.879 255.244 177.207 254.999L179.254 253.024C180.447 252.12 181.353 251.416 181.969 250.913C182.586 250.409 183.051 249.951 183.366 249.538C183.681 249.125 183.838 248.731 183.838 248.357C183.838 247.337 183.327 246.827 182.304 246.827C181.766 246.827 181.353 246.988 181.064 247.311C180.775 247.621 180.585 248.015 180.493 248.492C180.415 248.789 180.192 248.938 179.824 248.938H177.365C177.247 248.938 177.148 248.899 177.069 248.822C176.991 248.744 176.951 248.647 176.951 248.531C176.978 247.705 177.207 246.95 177.64 246.266C178.086 245.568 178.709 245.02 179.509 244.62C180.323 244.207 181.254 244 182.304 244C183.406 244 184.35 244.174 185.137 244.523C185.924 244.871 186.521 245.362 186.928 245.994C187.334 246.627 187.538 247.363 187.538 248.202C187.538 249.106 187.249 249.932 186.672 250.68C186.108 251.416 185.242 252.217 184.075 253.082L182.264 254.882H187.321C187.466 254.882 187.584 254.928 187.676 255.018C187.781 255.108 187.833 255.225 187.833 255.367V257.322C187.833 257.464 187.781 257.58 187.676 257.671C187.584 257.761 187.466 257.806 187.321 257.806H177.227Z" fill="white"/>
<path d="M190.109 253.391C189.964 253.391 189.846 253.346 189.754 253.256C189.663 253.166 189.617 253.049 189.617 252.907V251.087C189.617 250.945 189.663 250.829 189.754 250.739C189.846 250.648 189.964 250.603 190.109 250.603H196.268C196.412 250.603 196.53 250.648 196.622 250.739C196.727 250.829 196.779 250.945 196.779 251.087V252.907C196.779 253.049 196.727 253.166 196.622 253.256C196.53 253.346 196.412 253.391 196.268 253.391H190.109Z" fill="white"/>
<path d="M204.898 258C203.022 258 201.552 257.555 200.49 256.664C199.44 255.76 198.883 254.456 198.817 252.752C198.804 252.404 198.798 251.836 198.798 251.048C198.798 250.248 198.804 249.667 198.817 249.306C198.883 247.627 199.453 246.337 200.529 245.433C201.605 244.516 203.061 244.058 204.898 244.058C206.052 244.058 207.088 244.252 208.007 244.639C208.925 245.013 209.646 245.556 210.171 246.266C210.709 246.963 210.984 247.782 210.998 248.725V248.763C210.998 248.867 210.952 248.957 210.86 249.035C210.781 249.099 210.689 249.131 210.584 249.131H207.928C207.757 249.131 207.626 249.099 207.534 249.035C207.442 248.957 207.364 248.822 207.298 248.628C207.115 247.97 206.826 247.511 206.432 247.253C206.039 246.982 205.521 246.846 204.878 246.846C203.33 246.846 202.53 247.698 202.477 249.402C202.464 249.751 202.458 250.287 202.458 251.01C202.458 251.733 202.464 252.281 202.477 252.656C202.53 254.36 203.33 255.212 204.878 255.212C205.521 255.212 206.045 255.076 206.452 254.805C206.859 254.521 207.141 254.063 207.298 253.43C207.351 253.237 207.423 253.107 207.515 253.043C207.606 252.965 207.744 252.927 207.928 252.927H210.584C210.702 252.927 210.801 252.965 210.879 253.043C210.971 253.12 211.011 253.217 210.998 253.333C210.984 254.276 210.709 255.102 210.171 255.812C209.646 256.509 208.925 257.051 208.007 257.438C207.088 257.813 206.052 258 204.898 258Z" fill="white"/>
</svg>
