<svg width="441" height="312" viewBox="0 0 441 312" fill="none" xmlns="http://www.w3.org/2000/svg">
<path d="M160.773 159.339L120 188.241L200.804 312H274.196L355 174.161L305.331 146L240.836 257.902H226.009L160.773 159.339Z" fill="#439ECC"/>
<path d="M130.306 109.36L94.5647 150L0 73.8916L43.9317 23.6453L198.065 0L207 51.7241L85.6295 73.8916L130.306 109.36Z" fill="#439ECC"/>
<path d="M358.902 51.9101H248.698L245 2.96629L415.113 0L441 27.4382L378.132 132L333.755 99.3708L358.902 51.9101Z" fill="#439ECC"/>
<path d="M306.405 30.7834C306.302 30.7834 306.206 30.744 306.116 30.6653C306.039 30.5734 306 30.4749 306 30.3699C306 30.2911 306.006 30.2321 306.019 30.1927L310.55 17.5513C310.588 17.3938 310.672 17.2625 310.8 17.1575C310.929 17.0525 311.096 17 311.301 17H314.154C314.36 17 314.527 17.0525 314.656 17.1575C314.784 17.2625 314.868 17.3938 314.906 17.5513L319.417 30.1927L319.456 30.3699C319.456 30.4749 319.411 30.5734 319.321 30.6653C319.244 30.744 319.147 30.7834 319.032 30.7834H316.661C316.352 30.7834 316.146 30.6456 316.044 30.3699L315.292 28.3615H310.145L309.412 30.3699C309.309 30.6456 309.097 30.7834 308.776 30.7834H306.405ZM314.521 25.526L312.728 20.3277L310.935 25.526H314.521Z" fill="white"/>
<path d="M325.795 31C324.638 31 323.648 30.8162 322.826 30.4487C322.003 30.068 321.374 29.5626 320.937 28.9325C320.513 28.3024 320.288 27.6198 320.262 26.8847C320.262 26.7665 320.301 26.6681 320.378 26.5893C320.455 26.5105 320.551 26.4712 320.667 26.4712H323.25C323.546 26.4712 323.751 26.5959 323.867 26.8453C324.214 27.7248 324.863 28.1646 325.814 28.1646C326.379 28.1646 326.855 27.9873 327.24 27.6329C327.639 27.2654 327.838 26.76 327.838 26.1167C327.838 25.5391 327.645 25.0666 327.26 24.699C326.887 24.3315 326.405 24.1477 325.814 24.1477C325.48 24.1477 325.21 24.1936 325.004 24.2855C324.811 24.3643 324.612 24.4824 324.407 24.6399C324.188 24.8106 324.015 24.8959 323.886 24.8959H321.361C321.245 24.8959 321.142 24.8565 321.052 24.7778C320.975 24.6859 320.937 24.5809 320.937 24.4627L321.631 17.5907C321.644 17.4069 321.708 17.2625 321.823 17.1575C321.952 17.0525 322.1 17 322.267 17H329.997C330.139 17 330.254 17.0459 330.344 17.1378C330.447 17.2297 330.498 17.3479 330.498 17.4923V19.3432C330.498 19.4876 330.447 19.6057 330.344 19.6976C330.254 19.7895 330.139 19.8354 329.997 19.8354H324.407L324.156 22.3755C324.477 22.1524 324.831 21.9883 325.216 21.8833C325.602 21.7651 326.103 21.706 326.72 21.706C327.53 21.706 328.294 21.8964 329.014 22.2771C329.734 22.6446 330.306 23.1697 330.73 23.8523C331.167 24.5349 331.385 25.316 331.385 26.1955C331.385 27.1275 331.16 27.9611 330.71 28.6962C330.261 29.4182 329.612 29.9827 328.763 30.3896C327.928 30.7965 326.938 31 325.795 31Z" fill="white"/>
<path d="M333.669 26.294C333.528 26.294 333.412 26.248 333.322 26.1561C333.232 26.0642 333.187 25.9461 333.187 25.8017V23.9508C333.187 23.8064 333.232 23.6882 333.322 23.5963C333.412 23.5045 333.528 23.4585 333.669 23.4585H339.703C339.844 23.4585 339.96 23.5045 340.05 23.5963C340.153 23.6882 340.204 23.8064 340.204 23.9508V25.8017C340.204 25.9461 340.153 26.0642 340.05 26.1561C339.96 26.248 339.844 26.294 339.703 26.294H333.669Z" fill="white"/>
<path d="M343.05 30.7834C342.922 30.7834 342.806 30.7375 342.703 30.6456C342.613 30.5406 342.568 30.4224 342.568 30.2911V17.4923C342.568 17.3479 342.613 17.2297 342.703 17.1378C342.806 17.0459 342.922 17 343.05 17H348.93C350.549 17 351.751 17.3413 352.535 18.0239C353.332 18.6934 353.73 19.6517 353.73 20.8987C353.73 21.5551 353.563 22.113 353.229 22.5724C352.908 23.0188 352.541 23.3469 352.13 23.557C352.657 23.8064 353.1 24.2068 353.46 24.7581C353.82 25.3094 354 25.9264 354 26.609C354 27.9217 353.576 28.9456 352.728 29.6807C351.879 30.4158 350.671 30.7834 349.103 30.7834H343.05ZM348.544 22.474C349.059 22.474 349.45 22.3427 349.72 22.0802C349.99 21.8045 350.125 21.4435 350.125 20.9972C350.125 20.564 349.99 20.2161 349.72 19.9536C349.45 19.691 349.059 19.5598 348.544 19.5598H346.038V22.474H348.544ZM348.718 28.2236C349.245 28.2236 349.656 28.0661 349.952 27.7511C350.247 27.436 350.395 27.0553 350.395 26.609C350.395 26.1364 350.247 25.7492 349.952 25.4473C349.656 25.1322 349.245 24.9747 348.718 24.9747H346.038V28.2236H348.718Z" fill="white"/>
<path d="M71.4086 47.7989C71.3048 47.7989 71.2075 47.7623 71.1167 47.6892C71.0389 47.6038 71 47.5124 71 47.4149C71 47.3418 71.0065 47.2869 71.0195 47.2504L75.592 35.512C75.6309 35.3657 75.7152 35.2438 75.8449 35.1463C75.9746 35.0488 76.1433 35 76.3508 35H79.2305C79.4381 35 79.6067 35.0488 79.7364 35.1463C79.8661 35.2438 79.9504 35.3657 79.9894 35.512L84.5424 47.2504L84.5813 47.4149C84.5813 47.5124 84.5359 47.6038 84.4451 47.6892C84.3673 47.7623 84.27 47.7989 84.1533 47.7989H81.76C81.4487 47.7989 81.2411 47.6709 81.1373 47.4149L80.3785 45.5499H75.1834L74.444 47.4149C74.3402 47.6709 74.1262 47.7989 73.8019 47.7989H71.4086ZM79.6002 42.917L77.7907 38.09L75.9811 42.917H79.6002Z" fill="white"/>
<path d="M90.9793 48C89.8119 48 88.8131 47.8293 87.9829 47.488C87.1527 47.1346 86.5171 46.6653 86.076 46.0802C85.648 45.4951 85.421 44.8612 85.395 44.1786C85.395 44.0689 85.4339 43.9775 85.5118 43.9044C85.5896 43.8312 85.6869 43.7947 85.8036 43.7947H88.4109C88.7093 43.7947 88.9168 43.9105 89.0336 44.1421C89.3838 44.9587 90.0389 45.3671 90.9988 45.3671C91.5695 45.3671 92.0495 45.2025 92.4386 44.8734C92.8408 44.5321 93.0418 44.0628 93.0418 43.4655C93.0418 42.9292 92.8472 42.4904 92.4581 42.1491C92.0819 41.8078 91.5955 41.6371 90.9988 41.6371C90.6615 41.6371 90.3891 41.6798 90.1816 41.7651C89.987 41.8383 89.7859 41.948 89.5784 42.0942C89.3579 42.2527 89.1828 42.3319 89.053 42.3319H86.5041C86.3874 42.3319 86.2836 42.2954 86.1928 42.2222C86.115 42.1369 86.076 42.0394 86.076 41.9297L86.7765 35.5485C86.7895 35.3779 86.8543 35.2438 86.9711 35.1463C87.1008 35.0488 87.25 35 87.4186 35H95.2211C95.3637 35 95.4805 35.0427 95.5713 35.128C95.6751 35.2133 95.727 35.323 95.727 35.4571V37.1758C95.727 37.3099 95.6751 37.4196 95.5713 37.5049C95.4805 37.5902 95.3637 37.6329 95.2211 37.6329H89.5784L89.3254 39.9916C89.6497 39.7843 90.0065 39.632 90.3956 39.5345C90.7848 39.4248 91.2906 39.3699 91.9133 39.3699C92.7305 39.3699 93.5023 39.5466 94.2287 39.9001C94.9551 40.2414 95.5324 40.729 95.9604 41.3629C96.4015 41.9967 96.622 42.722 96.622 43.5387C96.622 44.4041 96.395 45.1782 95.941 45.8608C95.487 46.5312 94.8319 47.0553 93.9758 47.4332C93.1326 47.8111 92.1338 48 90.9793 48Z" fill="white"/>
<path d="M98.9274 43.6301C98.7847 43.6301 98.668 43.5874 98.5772 43.5021C98.4864 43.4168 98.441 43.3071 98.441 43.173V41.4543C98.441 41.3202 98.4864 41.2105 98.5772 41.1252C98.668 41.0399 98.7847 40.9972 98.9274 40.9972H105.018C105.16 40.9972 105.277 41.0399 105.368 41.1252C105.472 41.2105 105.523 41.3202 105.523 41.4543V43.173C105.523 43.3071 105.472 43.4168 105.368 43.5021C105.277 43.5874 105.16 43.6301 105.018 43.6301H98.9274Z" fill="white"/>
<path d="M106.827 47.7989C106.724 47.7989 106.626 47.7623 106.535 47.6892C106.458 47.6038 106.419 47.5124 106.419 47.4149C106.419 47.3418 106.425 47.2869 106.438 47.2504L111.011 35.512C111.05 35.3657 111.134 35.2438 111.264 35.1463C111.393 35.0488 111.562 35 111.769 35H114.649C114.857 35 115.025 35.0488 115.155 35.1463C115.285 35.2438 115.369 35.3657 115.408 35.512L119.961 47.2504L120 47.4149C120 47.5124 119.955 47.6038 119.864 47.6892C119.786 47.7623 119.689 47.7989 119.572 47.7989H117.179C116.867 47.7989 116.66 47.6709 116.556 47.4149L115.797 45.5499H110.602L109.863 47.4149C109.759 47.6709 109.545 47.7989 109.221 47.7989H106.827ZM115.019 42.917L113.209 38.09L111.4 42.917H115.019Z" fill="white"/>
<path d="M207.404 288.786C207.301 288.786 207.205 288.748 207.115 288.67C207.038 288.579 207 288.482 207 288.379C207 288.301 207.006 288.243 207.019 288.204L211.537 275.738C211.575 275.583 211.658 275.453 211.787 275.35C211.915 275.246 212.081 275.194 212.286 275.194H215.131C215.336 275.194 215.503 275.246 215.631 275.35C215.759 275.453 215.843 275.583 215.881 275.738L220.379 288.204L220.418 288.379C220.418 288.482 220.373 288.579 220.283 288.67C220.206 288.748 220.11 288.786 219.995 288.786H217.63C217.323 288.786 217.118 288.65 217.015 288.379L216.266 286.398H211.133L210.402 288.379C210.3 288.65 210.089 288.786 209.768 288.786H207.404ZM215.497 283.602L213.709 278.476L211.921 283.602H215.497Z" fill="white"/>
<path d="M226.739 289C225.585 289 224.599 288.819 223.778 288.456C222.958 288.081 222.33 287.583 221.894 286.961C221.472 286.34 221.247 285.667 221.222 284.942C221.222 284.825 221.26 284.728 221.337 284.65C221.414 284.573 221.51 284.534 221.625 284.534H224.201C224.496 284.534 224.701 284.657 224.816 284.903C225.162 285.77 225.81 286.204 226.758 286.204C227.322 286.204 227.796 286.029 228.18 285.68C228.578 285.317 228.776 284.819 228.776 284.184C228.776 283.615 228.584 283.149 228.2 282.786C227.828 282.424 227.347 282.243 226.758 282.243C226.425 282.243 226.156 282.288 225.951 282.379C225.758 282.456 225.56 282.573 225.355 282.728C225.137 282.896 224.964 282.981 224.836 282.981H222.317C222.202 282.981 222.1 282.942 222.01 282.864C221.933 282.773 221.894 282.67 221.894 282.553L222.587 275.777C222.599 275.595 222.663 275.453 222.779 275.35C222.907 275.246 223.054 275.194 223.221 275.194H230.929C231.07 275.194 231.186 275.239 231.275 275.33C231.378 275.421 231.429 275.537 231.429 275.68V277.505C231.429 277.647 231.378 277.764 231.275 277.854C231.186 277.945 231.07 277.99 230.929 277.99H225.355L225.105 280.495C225.425 280.275 225.778 280.113 226.162 280.01C226.546 279.893 227.046 279.835 227.661 279.835C228.469 279.835 229.231 280.023 229.949 280.398C230.667 280.761 231.237 281.278 231.66 281.951C232.096 282.625 232.313 283.395 232.313 284.262C232.313 285.181 232.089 286.003 231.641 286.728C231.192 287.44 230.545 287.997 229.699 288.398C228.866 288.799 227.879 289 226.739 289Z" fill="white"/>
<path d="M234.591 284.359C234.45 284.359 234.335 284.314 234.245 284.223C234.155 284.133 234.11 284.016 234.11 283.874V282.049C234.11 281.906 234.155 281.79 234.245 281.699C234.335 281.608 234.45 281.563 234.591 281.563H240.608C240.749 281.563 240.864 281.608 240.954 281.699C241.056 281.79 241.108 281.906 241.108 282.049V283.874C241.108 284.016 241.056 284.133 240.954 284.223C240.864 284.314 240.749 284.359 240.608 284.359H234.591Z" fill="white"/>
<path d="M249.038 288.981C247.206 288.981 245.77 288.534 244.732 287.641C243.707 286.735 243.163 285.427 243.098 283.718C243.086 283.369 243.079 282.799 243.079 282.01C243.079 281.207 243.086 280.625 243.098 280.262C243.163 278.579 243.72 277.285 244.771 276.379C245.822 275.46 247.244 275 249.038 275C250.166 275 251.179 275.194 252.076 275.583C252.973 275.958 253.678 276.502 254.19 277.214C254.716 277.913 254.985 278.735 254.998 279.68V279.718C254.998 279.822 254.953 279.913 254.863 279.99C254.786 280.055 254.696 280.087 254.594 280.087H251.999C251.832 280.087 251.704 280.055 251.614 279.99C251.525 279.913 251.448 279.777 251.384 279.583C251.204 278.922 250.922 278.463 250.538 278.204C250.153 277.932 249.647 277.796 249.019 277.796C247.507 277.796 246.725 278.65 246.674 280.359C246.661 280.709 246.655 281.246 246.655 281.971C246.655 282.696 246.661 283.246 246.674 283.621C246.725 285.33 247.507 286.184 249.019 286.184C249.647 286.184 250.16 286.049 250.557 285.777C250.954 285.492 251.23 285.032 251.384 284.398C251.435 284.204 251.505 284.074 251.595 284.01C251.685 283.932 251.819 283.893 251.999 283.893H254.594C254.709 283.893 254.805 283.932 254.882 284.01C254.972 284.087 255.01 284.184 254.998 284.301C254.985 285.246 254.716 286.074 254.19 286.786C253.678 287.485 252.973 288.029 252.076 288.417C251.179 288.793 250.166 288.981 249.038 288.981Z" fill="white"/>
</svg>
