<svg width="412" height="282" viewBox="0 0 412 282" fill="none" xmlns="http://www.w3.org/2000/svg">
<path d="M194 225.679V282H305.966L412 204.929L324.503 116L286.687 160.464L324.503 195.295L286.687 225.679H194Z" fill="#439ECC"/>
<path d="M127.237 130L85 101.771L147.245 9.65714L205.784 0L291 80.9714L247.281 119.6L185.777 54.9714H175.403L127.237 130Z" fill="#439ECC"/>
<path d="M103.364 161.596L62.0187 140L0 249.468L12.5514 258.404V280H158V227.128H62.0187L103.364 161.596Z" fill="#439ECC"/>
<path d="M161.408 35.8028C161.304 35.8028 161.207 35.7634 161.117 35.6845C161.039 35.5925 161 35.4939 161 35.3887C161 35.3099 161.006 35.2507 161.019 35.2113L165.583 22.5521C165.622 22.3944 165.706 22.2629 165.836 22.1577C165.965 22.0526 166.133 22 166.34 22H169.215C169.422 22 169.59 22.0526 169.72 22.1577C169.849 22.2629 169.933 22.3944 169.972 22.5521L174.516 35.2113L174.555 35.3887C174.555 35.4939 174.51 35.5925 174.419 35.6845C174.341 35.7634 174.244 35.8028 174.128 35.8028H171.739C171.428 35.8028 171.221 35.6648 171.118 35.3887L170.36 33.3775H165.175L164.437 35.3887C164.334 35.6648 164.12 35.8028 163.796 35.8028H161.408ZM169.584 30.538L167.778 25.3324L165.971 30.538H169.584Z" fill="white"/>
<path d="M181.154 36C180.015 36 179.005 35.7962 178.125 35.3887C177.257 34.9681 176.578 34.3831 176.086 33.6338C175.607 32.8845 175.367 32.03 175.367 31.0704C175.367 29.9005 175.911 28.5662 176.998 27.0676L180.416 22.3944C180.52 22.2761 180.617 22.184 180.708 22.1183C180.811 22.0394 180.947 22 181.115 22H183.698C183.815 22 183.912 22.046 183.99 22.138C184.067 22.2169 184.106 22.3155 184.106 22.4338C184.106 22.5258 184.08 22.6113 184.028 22.6901L181.407 26.3183C181.562 26.2789 181.756 26.2592 181.989 26.2592C182.779 26.2986 183.543 26.5221 184.281 26.9296C185.032 27.3239 185.64 27.8761 186.106 28.5859C186.572 29.2958 186.805 30.0977 186.805 30.9915C186.805 31.9117 186.572 32.7531 186.106 33.5155C185.64 34.2779 184.974 34.8826 184.106 35.3296C183.252 35.7765 182.268 36 181.154 36ZM181.115 33.1606C181.711 33.1606 182.216 32.9765 182.63 32.6085C183.044 32.2272 183.252 31.708 183.252 31.0507C183.252 30.3934 183.044 29.8808 182.63 29.5127C182.229 29.1446 181.724 28.9606 181.115 28.9606C180.507 28.9606 179.996 29.1446 179.581 29.5127C179.167 29.8808 178.96 30.3934 178.96 31.0507C178.96 31.708 179.167 32.2272 179.581 32.6085C179.996 32.9765 180.507 33.1606 181.115 33.1606Z" fill="white"/>
<path d="M188.968 31.307C188.826 31.307 188.709 31.261 188.619 31.169C188.528 31.077 188.483 30.9587 188.483 30.8141V28.9606C188.483 28.816 188.528 28.6977 188.619 28.6056C188.709 28.5136 188.826 28.4676 188.968 28.4676H195.047C195.189 28.4676 195.306 28.5136 195.396 28.6056C195.5 28.6977 195.552 28.816 195.552 28.9606V30.8141C195.552 30.9587 195.5 31.077 195.396 31.169C195.306 31.261 195.189 31.307 195.047 31.307H188.968Z" fill="white"/>
<path d="M196.853 35.8028C196.749 35.8028 196.652 35.7634 196.561 35.6845C196.484 35.5925 196.445 35.4939 196.445 35.3887C196.445 35.3099 196.451 35.2507 196.464 35.2113L201.028 22.5521C201.067 22.3944 201.151 22.2629 201.281 22.1577C201.41 22.0526 201.578 22 201.785 22H204.66C204.867 22 205.035 22.0526 205.164 22.1577C205.294 22.2629 205.378 22.3944 205.417 22.5521L209.961 35.2113L210 35.3887C210 35.4939 209.955 35.5925 209.864 35.6845C209.786 35.7634 209.689 35.8028 209.573 35.8028H207.184C206.873 35.8028 206.666 35.6648 206.563 35.3887L205.805 33.3775H200.62L199.882 35.3887C199.779 35.6648 199.565 35.8028 199.241 35.8028H196.853ZM205.029 30.538L203.222 25.3324L201.416 30.538H205.029Z" fill="white"/>
<path d="M245.404 258.803C245.301 258.803 245.205 258.763 245.115 258.685C245.038 258.592 245 258.494 245 258.389C245 258.31 245.006 258.251 245.019 258.211L249.541 245.552C249.579 245.394 249.662 245.263 249.791 245.158C249.919 245.053 250.086 245 250.291 245H253.138C253.344 245 253.51 245.053 253.639 245.158C253.767 245.263 253.85 245.394 253.889 245.552L258.391 258.211L258.429 258.389C258.429 258.494 258.385 258.592 258.295 258.685C258.218 258.763 258.122 258.803 258.006 258.803H255.64C255.332 258.803 255.127 258.665 255.024 258.389L254.274 256.377H249.137L248.405 258.389C248.303 258.665 248.091 258.803 247.771 258.803H245.404ZM253.504 253.538L251.715 248.332L249.925 253.538H253.504Z" fill="white"/>
<path d="M264.968 259C263.839 259 262.838 258.796 261.966 258.389C261.107 257.968 260.433 257.383 259.946 256.634C259.471 255.885 259.234 255.03 259.234 254.07C259.234 252.9 259.773 251.566 260.85 250.068L264.236 245.394C264.339 245.276 264.435 245.184 264.525 245.118C264.628 245.039 264.762 245 264.929 245H267.488C267.603 245 267.7 245.046 267.777 245.138C267.853 245.217 267.892 245.315 267.892 245.434C267.892 245.526 267.866 245.611 267.815 245.69L265.218 249.318C265.372 249.279 265.564 249.259 265.795 249.259C266.577 249.299 267.334 249.522 268.065 249.93C268.809 250.324 269.412 250.876 269.874 251.586C270.335 252.296 270.566 253.098 270.566 253.992C270.566 254.912 270.335 255.753 269.874 256.515C269.412 257.278 268.751 257.883 267.892 258.33C267.045 258.777 266.071 259 264.968 259ZM264.929 256.161C265.519 256.161 266.019 255.977 266.43 255.608C266.84 255.227 267.045 254.708 267.045 254.051C267.045 253.393 266.84 252.881 266.43 252.513C266.032 252.145 265.532 251.961 264.929 251.961C264.326 251.961 263.82 252.145 263.409 252.513C262.999 252.881 262.793 253.393 262.793 254.051C262.793 254.708 262.999 255.227 263.409 255.608C263.82 255.977 264.326 256.161 264.929 256.161Z" fill="white"/>
<path d="M272.709 254.307C272.568 254.307 272.452 254.261 272.363 254.169C272.273 254.077 272.228 253.959 272.228 253.814V251.961C272.228 251.816 272.273 251.698 272.363 251.606C272.452 251.514 272.568 251.468 272.709 251.468H278.731C278.872 251.468 278.988 251.514 279.077 251.606C279.18 251.698 279.231 251.816 279.231 251.961V253.814C279.231 253.959 279.18 254.077 279.077 254.169C278.988 254.261 278.872 254.307 278.731 254.307H272.709Z" fill="white"/>
<path d="M282.072 258.803C281.943 258.803 281.828 258.757 281.725 258.665C281.636 258.56 281.591 258.441 281.591 258.31V245.493C281.591 245.348 281.636 245.23 281.725 245.138C281.828 245.046 281.943 245 282.072 245H287.94C289.556 245 290.755 245.342 291.538 246.025C292.333 246.696 292.731 247.655 292.731 248.904C292.731 249.562 292.564 250.12 292.23 250.58C291.91 251.027 291.544 251.356 291.134 251.566C291.66 251.816 292.102 252.217 292.461 252.769C292.82 253.321 293 253.939 293 254.623C293 255.937 292.577 256.962 291.73 257.699C290.884 258.435 289.678 258.803 288.113 258.803H282.072ZM287.555 250.482C288.068 250.482 288.459 250.35 288.729 250.087C288.998 249.811 289.133 249.45 289.133 249.003C289.133 248.569 288.998 248.221 288.729 247.958C288.459 247.695 288.068 247.563 287.555 247.563H285.054V250.482H287.555ZM287.728 256.239C288.254 256.239 288.665 256.082 288.96 255.766C289.255 255.451 289.402 255.069 289.402 254.623C289.402 254.149 289.255 253.762 288.96 253.459C288.665 253.144 288.254 252.986 287.728 252.986H285.054V256.239H287.728Z" fill="white"/>
<path d="M60.4113 258.806C60.3068 258.806 60.2089 258.767 60.1175 258.689C60.0392 258.598 60 258.501 60 258.397C60 258.319 60.0065 258.261 60.0196 258.222L64.6221 245.739C64.6613 245.583 64.7462 245.454 64.8767 245.35C65.0073 245.246 65.1771 245.194 65.386 245.194H68.2846C68.4935 245.194 68.6632 245.246 68.7938 245.35C68.9244 245.454 69.0092 245.583 69.0484 245.739L73.6314 258.222L73.6705 258.397C73.6705 258.501 73.6248 258.598 73.5335 258.689C73.4551 258.767 73.3572 258.806 73.2397 258.806H70.8307C70.5173 258.806 70.3084 258.669 70.2039 258.397L69.4401 256.414H64.2108L63.4666 258.397C63.3621 258.669 63.1467 258.806 62.8203 258.806H60.4113ZM68.6567 253.614L66.8353 248.481L65.0138 253.614H68.6567Z" fill="white"/>
<path d="M80.326 259C79.177 259 78.1586 258.799 77.2707 258.397C76.3959 257.982 75.7104 257.406 75.2143 256.667C74.7312 255.928 74.4896 255.085 74.4896 254.139C74.4896 252.985 75.038 251.669 76.1348 250.192L79.5818 245.583C79.6862 245.467 79.7842 245.376 79.8756 245.311C79.98 245.233 80.1171 245.194 80.2869 245.194H82.8917C83.0092 245.194 83.1071 245.24 83.1855 245.331C83.2638 245.408 83.303 245.506 83.303 245.622C83.303 245.713 83.2769 245.797 83.2247 245.875L80.5806 249.453C80.7373 249.414 80.9332 249.394 81.1682 249.394C81.9647 249.433 82.735 249.654 83.4793 250.056C84.2366 250.444 84.8502 250.989 85.3203 251.689C85.7903 252.389 86.0254 253.18 86.0254 254.061C86.0254 254.969 85.7903 255.798 85.3203 256.55C84.8502 257.302 84.1778 257.898 83.303 258.339C82.4412 258.78 81.4489 259 80.326 259ZM80.2869 256.2C80.8875 256.2 81.3967 256.019 81.8145 255.656C82.2323 255.28 82.4412 254.768 82.4412 254.119C82.4412 253.471 82.2323 252.966 81.8145 252.603C81.4098 252.24 80.9005 252.058 80.2869 252.058C79.6732 252.058 79.1574 252.24 78.7396 252.603C78.3218 252.966 78.1129 253.471 78.1129 254.119C78.1129 254.768 78.3218 255.28 78.7396 255.656C79.1574 256.019 79.6732 256.2 80.2869 256.2Z" fill="white"/>
<path d="M88.2065 254.372C88.0629 254.372 87.9454 254.327 87.854 254.236C87.7626 254.145 87.7169 254.029 87.7169 253.886V252.058C87.7169 251.916 87.7626 251.799 87.854 251.708C87.9454 251.618 88.0629 251.572 88.2065 251.572H94.3367C94.4803 251.572 94.5979 251.618 94.6893 251.708C94.7937 251.799 94.8459 251.916 94.8459 252.058V253.886C94.8459 254.029 94.7937 254.145 94.6893 254.236C94.5979 254.327 94.4803 254.372 94.3367 254.372H88.2065Z" fill="white"/>
<path d="M102.926 259C101.059 259 99.5966 258.553 98.539 257.658C97.4944 256.751 96.9395 255.442 96.8742 253.731C96.8612 253.381 96.8547 252.81 96.8547 252.019C96.8547 251.216 96.8612 250.632 96.8742 250.269C96.9395 248.584 97.5075 247.288 98.5782 246.381C99.6488 245.46 101.098 245 102.926 245C104.075 245 105.107 245.194 106.021 245.583C106.935 245.959 107.653 246.504 108.175 247.217C108.71 247.917 108.984 248.74 108.998 249.686V249.725C108.998 249.829 108.952 249.919 108.86 249.997C108.782 250.062 108.691 250.094 108.586 250.094H105.942C105.773 250.094 105.642 250.062 105.551 249.997C105.459 249.919 105.381 249.783 105.316 249.589C105.133 248.928 104.845 248.468 104.454 248.208C104.062 247.936 103.546 247.8 102.907 247.8C101.366 247.8 100.569 248.656 100.517 250.367C100.504 250.717 100.498 251.255 100.498 251.981C100.498 252.706 100.504 253.257 100.517 253.633C100.569 255.344 101.366 256.2 102.907 256.2C103.546 256.2 104.069 256.064 104.473 255.792C104.878 255.506 105.159 255.046 105.316 254.411C105.368 254.217 105.44 254.087 105.531 254.022C105.622 253.944 105.759 253.906 105.942 253.906H108.586C108.704 253.906 108.802 253.944 108.88 254.022C108.971 254.1 109.011 254.197 108.998 254.314C108.984 255.26 108.71 256.09 108.175 256.803C107.653 257.503 106.935 258.047 106.021 258.436C105.107 258.812 104.075 259 102.926 259Z" fill="white"/>
</svg>
