<svg xmlns="http://www.w3.org/2000/svg" viewBox="0 0 229.75 299.95"><defs><style>.cls-1{fill:#fff;}.cls-2{fill:#e8e8ea;}.cls-3{fill:#bababa;}.cls-4{fill:#d1e2ec;}.cls-5{fill:#99bd5a;}.cls-6{fill:#cfcfce;}</style></defs><g id="Layer_2" data-name="Layer 2"><g id="Layer_1-2" data-name="Layer 1"><rect class="cls-1" width="229.75" height="299.95" rx="13.19"/><rect class="cls-2" y="265.47" width="229.75" height="3.19"/><rect class="cls-2" y="50.62" width="229.75" height="3.19"/><circle class="cls-2" cx="144.46" cy="26.75" r="12.03"/><path class="cls-3" d="M145.69,14.79q-.62-.06-1.23-.06t-1.23.06v12h2.46Z"/><rect class="cls-4" x="70.22" y="16.56" width="44.31" height="18.29"/><circle class="cls-5" cx="87.69" cy="40" r="2.09"/><circle class="cls-5" cx="78.33" cy="40" r="2.09"/><circle class="cls-5" cx="97.06" cy="40" r="2.09"/><circle class="cls-5" cx="106.43" cy="40" r="2.09"/><circle class="cls-2" cx="114.87" cy="159.64" r="81.05"/><circle class="cls-6" cx="114.87" cy="159.64" r="71.98"/><path class="cls-2" d="M137.43,165a71.84,71.84,0,0,0,28.92,57.68A81,81,0,0,0,172.91,103,72,72,0,0,0,137.43,165Z"/><rect class="cls-2" x="68.63" y="265.47" width="3.19" height="34.48"/></g></g></svg>