<svg xmlns="http://www.w3.org/2000/svg" viewBox="0 0 244.14 124.65"><defs><style>.cls-1{fill:#c1dc81;}.cls-2{fill:#99bd5a;}</style></defs><g id="Layer_2" data-name="Layer 2"><g id="Layer_1-2" data-name="Layer 1"><path class="cls-1" d="M232.21,3.49H11.93C6,3.49,1.86,9.86,3.86,15.92l30.55,92.63c3.19,9.66,11.63,16.1,21.09,16.1H188.64c9.46,0,17.9-6.44,21.09-16.1l30.55-92.63C242.28,9.86,238.14,3.49,232.21,3.49ZM195.35,28.26a4.76,4.76,0,1,1,9.52,0V44.47a4.76,4.76,0,1,1-9.52,0Zm-15.73,0a4.76,4.76,0,0,1,4.76-4.76h0a4.76,4.76,0,0,1,4.76,4.76V44.47a4.76,4.76,0,0,1-4.76,4.76h0a4.76,4.76,0,0,1-4.76-4.76Zm-15.72,0a4.76,4.76,0,1,1,9.52,0V44.47a4.76,4.76,0,1,1-9.52,0Zm-15.72,0a4.76,4.76,0,1,1,9.51,0V44.47a4.76,4.76,0,1,1-9.51,0Zm-15.73,0a4.76,4.76,0,1,1,9.52,0V44.47a4.76,4.76,0,1,1-9.52,0Zm-15.72,0a4.76,4.76,0,0,1,4.76-4.76h0a4.76,4.76,0,0,1,4.76,4.76V44.47a4.76,4.76,0,0,1-4.76,4.76h0a4.76,4.76,0,0,1-4.76-4.76Zm-15.73,0a4.76,4.76,0,1,1,9.52,0V44.47a4.76,4.76,0,1,1-9.52,0Zm-15.72,0a4.76,4.76,0,1,1,9.52,0V44.47a4.76,4.76,0,1,1-9.52,0Zm-15.72,0a4.76,4.76,0,1,1,9.51,0V44.47a4.76,4.76,0,1,1-9.51,0Zm-15.73,0a4.76,4.76,0,0,1,4.76-4.76h0a4.76,4.76,0,0,1,4.76,4.76V44.47a4.76,4.76,0,0,1-4.76,4.76h0a4.76,4.76,0,0,1-4.76-4.76Zm-15.72,0a4.76,4.76,0,1,1,9.51,0V44.47a4.76,4.76,0,1,1-9.51,0ZM22.38,44.47V28.26a4.76,4.76,0,1,1,9.52,0V44.47a4.76,4.76,0,1,1-9.52,0ZM34.59,82.22a4.76,4.76,0,0,1-4.76-4.76V61.25a4.76,4.76,0,1,1,9.52,0V77.46A4.76,4.76,0,0,1,34.59,82.22Zm13,28.23a4.76,4.76,0,1,1-9.51,0V94.24a4.76,4.76,0,1,1,9.51,0Zm2.69-28.23a4.76,4.76,0,0,1-4.75-4.76V61.25a4.76,4.76,0,1,1,9.51,0V77.46A4.76,4.76,0,0,1,50.31,82.22Zm13,28.23a4.76,4.76,0,0,1-4.76,4.76h0a4.76,4.76,0,0,1-4.76-4.76V94.24a4.76,4.76,0,0,1,4.76-4.76h0a4.76,4.76,0,0,1,4.76,4.76ZM66,82.22a4.76,4.76,0,0,1-4.76-4.76V61.25a4.76,4.76,0,1,1,9.52,0V77.46A4.76,4.76,0,0,1,66,82.22Zm13,28.23a4.76,4.76,0,1,1-9.51,0V94.24a4.76,4.76,0,1,1,9.51,0Zm2.69-28.23h0A4.76,4.76,0,0,1,77,77.46V61.25a4.76,4.76,0,0,1,4.76-4.76h0a4.76,4.76,0,0,1,4.76,4.76V77.46A4.76,4.76,0,0,1,81.76,82.22Zm13,28.23a4.76,4.76,0,1,1-9.52,0V94.24a4.76,4.76,0,0,1,9.52,0Zm2.69-28.23a4.76,4.76,0,0,1-4.76-4.76V61.25a4.76,4.76,0,0,1,9.52,0V77.46A4.76,4.76,0,0,1,97.49,82.22Zm13,28.23a4.76,4.76,0,1,1-9.52,0V94.24a4.76,4.76,0,0,1,9.52,0Zm2.69-28.23a4.76,4.76,0,0,1-4.76-4.76V61.25a4.76,4.76,0,0,1,9.52,0V77.46A4.76,4.76,0,0,1,113.21,82.22Zm13,28.23a4.76,4.76,0,0,1-4.76,4.76h0a4.76,4.76,0,0,1-4.76-4.76V94.24a4.76,4.76,0,0,1,4.76-4.76h0a4.76,4.76,0,0,1,4.76,4.76Zm2.68-28.23a4.76,4.76,0,0,1-4.75-4.76V61.25a4.76,4.76,0,1,1,9.51,0V77.46A4.76,4.76,0,0,1,128.93,82.22Zm13,28.23a4.76,4.76,0,1,1-9.52,0V94.24a4.76,4.76,0,0,1,9.52,0Zm2.69-28.23h0a4.76,4.76,0,0,1-4.76-4.76V61.25a4.76,4.76,0,0,1,4.76-4.76h0a4.76,4.76,0,0,1,4.76,4.76V77.46A4.76,4.76,0,0,1,144.66,82.22Zm13,28.23a4.76,4.76,0,1,1-9.51,0V94.24a4.76,4.76,0,1,1,9.51,0Zm2.69-28.23a4.76,4.76,0,0,1-4.76-4.76V61.25a4.76,4.76,0,0,1,9.52,0V77.46A4.76,4.76,0,0,1,160.38,82.22Zm13,28.23a4.76,4.76,0,1,1-9.52,0V94.24a4.76,4.76,0,1,1,9.52,0Zm2.69-28.23a4.76,4.76,0,0,1-4.76-4.76V61.25a4.76,4.76,0,1,1,9.52,0V77.46A4.76,4.76,0,0,1,176.11,82.22Zm13,28.23a4.76,4.76,0,0,1-4.76,4.76h0a4.76,4.76,0,0,1-4.76-4.76V94.24a4.76,4.76,0,0,1,4.76-4.76h0a4.76,4.76,0,0,1,4.76,4.76Zm2.69-28.23a4.76,4.76,0,0,1-4.76-4.76V61.25a4.76,4.76,0,1,1,9.52,0V77.46A4.76,4.76,0,0,1,191.83,82.22Zm13,28.23a4.76,4.76,0,1,1-9.52,0V94.24a4.76,4.76,0,1,1,9.52,0Zm7.44-33a4.76,4.76,0,0,1-4.75,4.76h0a4.76,4.76,0,0,1-4.76-4.76V61.25a4.76,4.76,0,0,1,4.76-4.76h0a4.76,4.76,0,0,1,4.75,4.76Zm8.28-33a4.76,4.76,0,1,1-9.52,0V28.26a4.76,4.76,0,1,1,9.52,0Z"/><rect class="cls-2" width="244.14" height="16.66" rx="8.33"/></g></g></svg>