<svg xmlns="http://www.w3.org/2000/svg" viewBox="0 0 244.14 171.53"><defs><style>.cls-1{fill:#be64a7;}.cls-2{fill:#8f4d80;}.cls-3{fill:#6371b6;}.cls-4{fill:#40509b;}.cls-5{fill:#ead93c;}.cls-6{fill:#a09544;}.cls-7{fill:#d8653d;}.cls-8{fill:#934d3a;}.cls-9{fill:#4b5eaa;}.cls-10{fill:#35458e;}.cls-11{fill:#d857a0;}.cls-12{fill:#a13b77;}.cls-13{fill:#c1dc81;}.cls-14{fill:#99bd5a;}</style></defs><g id="Layer_2" data-name="Layer 2"><g id="Layer_1-2" data-name="Layer 1"><rect class="cls-1" x="49.85" y="136.5" width="138.51" height="27.3" rx="9.38"/><rect class="cls-2" x="64.23" y="147.18" width="109.75" height="5.95"/><rect class="cls-3" x="49.85" y="109.2" width="138.51" height="27.3" rx="9.38"/><rect class="cls-4" x="64.23" y="119.88" width="109.75" height="5.95"/><rect class="cls-5" x="49.85" y="81.9" width="138.51" height="27.3" rx="9.38"/><rect class="cls-6" x="64.23" y="92.58" width="109.75" height="5.95"/><rect class="cls-7" x="49.85" y="54.6" width="138.51" height="27.3" rx="9.38"/><rect class="cls-8" x="64.23" y="65.28" width="109.75" height="5.95"/><rect class="cls-9" x="49.85" y="27.3" width="138.51" height="27.3" rx="9.38"/><rect class="cls-10" x="64.23" y="37.98" width="109.75" height="5.95"/><rect class="cls-11" x="49.85" width="138.51" height="27.3" rx="9.38"/><rect class="cls-12" x="64.23" y="10.68" width="109.75" height="5.95"/><path class="cls-13" d="M232.21,50.36H11.93C6,50.36,1.86,56.74,3.86,62.79l30.55,92.63C37.6,165.08,46,171.53,55.5,171.53H188.64c9.46,0,17.9-6.45,21.09-16.11l30.55-92.63C242.28,56.74,238.14,50.36,232.21,50.36ZM195.35,75.13a4.76,4.76,0,1,1,9.52,0V91.34a4.76,4.76,0,1,1-9.52,0Zm-15.73,0a4.76,4.76,0,0,1,4.76-4.76h0a4.76,4.76,0,0,1,4.76,4.76V91.34a4.76,4.76,0,0,1-4.76,4.76h0a4.76,4.76,0,0,1-4.76-4.76Zm-15.72,0a4.76,4.76,0,0,1,9.52,0V91.34a4.76,4.76,0,0,1-9.52,0Zm-15.72,0a4.76,4.76,0,1,1,9.51,0V91.34a4.76,4.76,0,1,1-9.51,0Zm-15.73,0a4.76,4.76,0,0,1,9.52,0V91.34a4.76,4.76,0,1,1-9.52,0Zm-15.72,0a4.76,4.76,0,0,1,4.76-4.76h0a4.76,4.76,0,0,1,4.76,4.76V91.34a4.76,4.76,0,0,1-4.76,4.76h0a4.76,4.76,0,0,1-4.76-4.76Zm-15.73,0a4.76,4.76,0,0,1,9.52,0V91.34a4.76,4.76,0,1,1-9.52,0Zm-15.72,0a4.76,4.76,0,0,1,9.52,0V91.34a4.76,4.76,0,1,1-9.52,0Zm-15.72,0a4.76,4.76,0,1,1,9.51,0V91.34a4.76,4.76,0,1,1-9.51,0Zm-15.73,0a4.76,4.76,0,0,1,4.76-4.76h0a4.76,4.76,0,0,1,4.76,4.76V91.34a4.76,4.76,0,0,1-4.76,4.76h0a4.76,4.76,0,0,1-4.76-4.76Zm-15.72,0a4.76,4.76,0,1,1,9.51,0V91.34a4.76,4.76,0,1,1-9.51,0ZM22.38,91.34V75.13a4.76,4.76,0,0,1,9.52,0V91.34a4.76,4.76,0,0,1-9.52,0Zm12.21,37.75a4.76,4.76,0,0,1-4.76-4.75V108.12a4.76,4.76,0,1,1,9.52,0v16.22A4.76,4.76,0,0,1,34.59,129.09Zm13,28.24a4.76,4.76,0,1,1-9.51,0V141.11a4.76,4.76,0,0,1,9.51,0Zm2.69-28.24a4.75,4.75,0,0,1-4.75-4.75V108.12a4.76,4.76,0,1,1,9.51,0v16.22A4.76,4.76,0,0,1,50.31,129.09Zm13,28.24a4.76,4.76,0,0,1-4.76,4.76h0a4.76,4.76,0,0,1-4.76-4.76V141.11a4.76,4.76,0,0,1,4.76-4.75h0a4.76,4.76,0,0,1,4.76,4.75ZM66,129.09a4.76,4.76,0,0,1-4.76-4.75V108.12a4.76,4.76,0,1,1,9.52,0v16.22A4.76,4.76,0,0,1,66,129.09Zm13,28.24a4.76,4.76,0,1,1-9.51,0V141.11a4.76,4.76,0,0,1,9.51,0Zm2.69-28.24h0A4.76,4.76,0,0,1,77,124.34V108.12a4.76,4.76,0,0,1,4.76-4.76h0a4.76,4.76,0,0,1,4.76,4.76v16.22A4.76,4.76,0,0,1,81.76,129.09Zm13,28.24a4.76,4.76,0,1,1-9.52,0V141.11a4.76,4.76,0,0,1,9.52,0Zm2.69-28.24a4.76,4.76,0,0,1-4.76-4.75V108.12a4.76,4.76,0,1,1,9.52,0v16.22A4.76,4.76,0,0,1,97.49,129.09Zm13,28.24a4.76,4.76,0,1,1-9.52,0V141.11a4.76,4.76,0,0,1,9.52,0Zm2.69-28.24a4.76,4.76,0,0,1-4.76-4.75V108.12a4.76,4.76,0,0,1,9.52,0v16.22A4.76,4.76,0,0,1,113.21,129.09Zm13,28.24a4.76,4.76,0,0,1-4.76,4.76h0a4.76,4.76,0,0,1-4.76-4.76V141.11a4.76,4.76,0,0,1,4.76-4.75h0a4.76,4.76,0,0,1,4.76,4.75Zm2.68-28.24a4.75,4.75,0,0,1-4.75-4.75V108.12a4.76,4.76,0,1,1,9.51,0v16.22A4.76,4.76,0,0,1,128.93,129.09Zm13,28.24a4.76,4.76,0,1,1-9.52,0V141.11a4.76,4.76,0,0,1,9.52,0Zm2.69-28.24h0a4.76,4.76,0,0,1-4.76-4.75V108.12a4.76,4.76,0,0,1,4.76-4.76h0a4.76,4.76,0,0,1,4.76,4.76v16.22A4.76,4.76,0,0,1,144.66,129.09Zm13,28.24a4.76,4.76,0,1,1-9.51,0V141.11a4.76,4.76,0,0,1,9.51,0Zm2.69-28.24a4.76,4.76,0,0,1-4.76-4.75V108.12a4.76,4.76,0,0,1,9.52,0v16.22A4.76,4.76,0,0,1,160.38,129.09Zm13,28.24a4.76,4.76,0,0,1-9.52,0V141.11a4.76,4.76,0,0,1,9.52,0Zm2.69-28.24a4.76,4.76,0,0,1-4.76-4.75V108.12a4.76,4.76,0,1,1,9.52,0v16.22A4.76,4.76,0,0,1,176.11,129.09Zm13,28.24a4.76,4.76,0,0,1-4.76,4.76h0a4.76,4.76,0,0,1-4.76-4.76V141.11a4.76,4.76,0,0,1,4.76-4.75h0a4.76,4.76,0,0,1,4.76,4.75Zm2.69-28.24a4.76,4.76,0,0,1-4.76-4.75V108.12a4.76,4.76,0,1,1,9.52,0v16.22A4.76,4.76,0,0,1,191.83,129.09Zm13,28.24a4.76,4.76,0,1,1-9.52,0V141.11a4.76,4.76,0,0,1,9.52,0Zm7.44-33a4.75,4.75,0,0,1-4.75,4.75h0a4.76,4.76,0,0,1-4.76-4.75V108.12a4.76,4.76,0,0,1,4.76-4.76h0a4.76,4.76,0,0,1,4.75,4.76Zm8.28-33a4.76,4.76,0,1,1-9.52,0V75.13a4.76,4.76,0,1,1,9.52,0Z"/><rect class="cls-14" y="46.87" width="244.14" height="16.66" rx="8.33"/></g></g></svg>