<svg width="126" height="126" viewBox="0 0 126 126" fill="none" xmlns="http://www.w3.org/2000/svg">
<path d="M11.025 54.4159C15.079 59.2672 39.2123 87.6302 66.797 83.0401C70.4763 82.4282 81.593 81.6895 83.9241 71.3157C85.8953 62.6482 78.5659 53.5845 71.0283 53.1188C67.3206 52.8963 62.8951 54.1486 60.5709 57.5252C58.2321 61.1326 56.5267 65.1131 55.5285 69.2949C55.5285 69.2949 46.8216 57.4853 47.5308 48.3969C47.9803 42.9045 51.978 37.6265 55.4351 34.2362C61.1676 28.6072 69.2368 27.107 75.5123 27.5239C90.3194 28.5103 98.2371 41.7217 100.332 45.2151C101.988 47.974 108.255 58.432 105.186 71.4988C102.033 84.9617 91.2116 91.6219 87.7083 93.7732C72.7566 102.972 57.0417 99.3095 52.8895 98.3468C44.9444 96.4323 37.5662 92.6619 31.3598 87.3449C21.9833 79.5827 17.5681 70.6493 15.389 66.1204C13.581 62.36 12.1202 58.4422 11.025 54.4159H11.025Z" fill="#006FB8"/>
<path d="M11.0252 54.416C14.5808 58.6777 40.4915 81.675 64.7061 77.6451C67.9346 77.1091 77.695 76.4585 79.7387 67.3578C81.458 59.7236 75.0468 51.7911 68.4244 51.3814C65.1693 51.1863 60.9117 52.8403 58.8803 55.8074C57.1627 58.209 55.6593 60.7568 54.3873 63.4213C54.3873 63.4213 47.1721 55.2148 47.7933 47.2405C48.1766 42.4145 51.692 37.7731 54.7268 34.797C59.7833 29.8351 66.8431 28.5397 72.3479 28.9024C85.3561 29.7693 92.3073 41.3751 94.1393 44.433C95.59 46.8595 101.091 56.0388 98.4074 67.5306C95.6343 79.3559 86.1366 85.2019 83.0641 87.0843C69.9387 95.1487 56.9238 91.6455 52.4836 91.098C42.4763 89.8209 35.7698 86.7735 32.2405 84.235C23.564 77.9889 18.5302 70.8281 16.6199 66.854C14.7096 62.8799 11.7359 57.0389 11.0252 54.416Z" fill="#42ABE1"/>
<path d="M23.6171 77.8928C23.6171 77.9347 23.5964 78.2277 23.5549 78.7719H15.112C15.2641 79.4696 15.6236 80.0208 16.1907 80.4254C16.7577 80.8301 17.463 81.0324 18.3066 81.0324C18.8874 81.0324 19.3991 80.9487 19.8416 80.7812C20.298 80.5998 20.7198 80.3208 21.107 79.944L22.8288 81.8278C21.7778 83.0417 20.2427 83.6487 18.2236 83.6487C16.9651 83.6487 15.8518 83.4045 14.8838 82.9162C13.9157 82.4138 13.1689 81.7231 12.6434 80.844C12.1179 79.9649 11.8551 78.9672 11.8551 77.8509C11.8551 76.7486 12.1109 75.7579 12.6226 74.8788C13.1482 73.9858 13.8604 73.295 14.7593 72.8067C15.672 72.3043 16.6885 72.0532 17.8087 72.0532C18.9012 72.0532 19.89 72.2904 20.7751 72.7648C21.6602 73.2392 22.3517 73.923 22.8496 74.816C23.3613 75.6951 23.6171 76.7207 23.6171 77.8928ZM17.8295 74.523C17.0965 74.523 16.4811 74.7323 15.9832 75.1509C15.4853 75.5695 15.1811 76.1416 15.0705 76.8672H20.5677C20.4571 76.1556 20.1528 75.5904 19.6549 75.1718C19.1571 74.7393 18.5486 74.523 17.8295 74.523Z" fill="black"/>
<path d="M25.9998 68.8298H29.3603V80.7184H36.6416V83.4813H25.9998V68.8298Z" fill="black"/>
<path d="M42.9141 72.0532C44.6428 72.0532 45.9705 72.4718 46.897 73.309C47.8236 74.1323 48.2869 75.3811 48.2869 77.0556V83.4813H45.2582V82.0789C44.6497 83.1255 43.5157 83.6487 41.8562 83.6487C40.9987 83.6487 40.252 83.5022 39.6158 83.2092C38.9935 82.9162 38.5163 82.5115 38.1844 81.9952C37.8525 81.4789 37.6866 80.8929 37.6866 80.237C37.6866 79.1905 38.0738 78.3672 38.8483 77.7672C39.6365 77.1672 40.8466 76.8672 42.4785 76.8672H45.0508C45.0508 76.1556 44.8364 75.6114 44.4077 75.2346C43.979 74.8439 43.3359 74.6486 42.4785 74.6486C41.8838 74.6486 41.2961 74.7462 40.7152 74.9416C40.1482 75.123 39.6642 75.3742 39.2631 75.6951L38.1015 73.4136C38.71 72.9811 39.436 72.6462 40.2796 72.409C41.137 72.1718 42.0152 72.0532 42.9141 72.0532ZM42.6652 81.451C43.2184 81.451 43.7093 81.3254 44.138 81.0743C44.5668 80.8091 44.871 80.4254 45.0508 79.9231V78.7719H42.8312C41.5035 78.7719 40.8397 79.2114 40.8397 80.0905C40.8397 80.5091 40.9987 80.844 41.3168 81.0952C41.6487 81.3324 42.0982 81.451 42.6652 81.451Z" fill="black"/>
<path d="M62.4591 72.2206V83.4813H59.389V82.1417C58.9603 82.6301 58.4486 83.0069 57.8539 83.272C57.2592 83.5232 56.6162 83.6487 55.9247 83.6487C54.4587 83.6487 53.2971 83.2231 52.4396 82.372C51.5822 81.5208 51.1535 80.258 51.1535 78.5835V72.2206H54.3896V78.1021C54.3896 79.9161 55.1433 80.8231 56.6507 80.8231C57.4252 80.8231 58.0475 80.5719 58.5177 80.0696C58.9879 79.5533 59.223 78.7928 59.223 77.7882V72.2206H62.4591Z" fill="black"/>
<path d="M72.2405 72.0532C73.6235 72.0532 74.7368 72.4718 75.5804 73.309C76.4378 74.1462 76.8665 75.3881 76.8665 77.0346V83.4813H73.6304V77.537C73.6304 76.6439 73.4368 75.9811 73.0496 75.5486C72.6623 75.1021 72.1022 74.8788 71.3693 74.8788C70.5533 74.8788 69.9033 75.1369 69.4193 75.6532C68.9353 76.1556 68.6933 76.9091 68.6933 77.9137V83.4813H65.4572V72.2206H68.548V73.5392C68.9768 73.0648 69.5092 72.702 70.1454 72.4508C70.7815 72.1857 71.4799 72.0532 72.2405 72.0532Z" fill="black"/>
<path d="M91.2893 67.9507V83.4813H88.1984V82.1836C87.3963 83.1604 86.2346 83.6487 84.7133 83.6487C83.6623 83.6487 82.7081 83.4115 81.8506 82.9371C81.007 82.4627 80.3432 81.7859 79.8592 80.9068C79.3751 80.0277 79.1331 79.0091 79.1331 77.8509C79.1331 76.6928 79.3751 75.6742 79.8592 74.7951C80.3432 73.916 81.007 73.2392 81.8506 72.7648C82.7081 72.2904 83.6623 72.0532 84.7133 72.0532C86.1378 72.0532 87.2511 72.5067 88.0532 73.4136V67.9507H91.2893ZM85.2734 80.9696C86.0894 80.9696 86.767 80.6905 87.3064 80.1324C87.8457 79.5603 88.1154 78.7998 88.1154 77.8509C88.1154 76.9021 87.8457 76.1486 87.3064 75.5904C86.767 75.0183 86.0894 74.7323 85.2734 74.7323C84.4437 74.7323 83.7591 75.0183 83.2198 75.5904C82.6804 76.1486 82.4107 76.9021 82.4107 77.8509C82.4107 78.7998 82.6804 79.5603 83.2198 80.1324C83.7591 80.6905 84.4437 80.9696 85.2734 80.9696Z" fill="black"/>
<path d="M97.3753 73.7067C97.7625 73.1625 98.2811 72.7508 98.9311 72.4718C99.5949 72.1927 100.356 72.0532 101.213 72.0532V75.0672C100.853 75.0393 100.611 75.0253 100.487 75.0253C99.5603 75.0253 98.8343 75.2904 98.3088 75.8207C97.7833 76.337 97.5205 77.1184 97.5205 78.1649V83.4813H94.2844V72.2206H97.3753V73.7067Z" fill="black"/>
<path d="M114.6 72.2206L109.559 84.172C109.047 85.4697 108.411 86.3837 107.65 86.9139C106.903 87.4442 105.998 87.7093 104.933 87.7093C104.352 87.7093 103.778 87.6186 103.211 87.4372C102.644 87.2558 102.181 87.0046 101.821 86.6837L103.003 84.3604C103.252 84.5836 103.536 84.7581 103.854 84.8836C104.186 85.0092 104.511 85.072 104.829 85.072C105.272 85.072 105.631 84.9604 105.908 84.7371C106.184 84.5278 106.433 84.172 106.654 83.6697L106.696 83.565L101.863 72.2206H105.202L108.335 79.8603L111.488 72.2206H114.6Z" fill="black"/>
</svg>
