<svg xmlns="http://www.w3.org/2000/svg" viewBox="0 0 137.15 179.05"><defs><style>.cls-1{fill:#fff;}.cls-2{fill:#e8e8ea;}.cls-3{fill:#bababa;}.cls-4{fill:#bebec0;}.cls-5{fill:#d1e2ec;}.cls-6{fill:#99bd5a;}.cls-7{fill:#7dd3f7;}.cls-8{fill:#6e6e73;}</style></defs><g id="Layer_2" data-name="Layer 2"><g id="Layer_1-2" data-name="Layer 1"><rect class="cls-1" width="137.15" height="179.05" rx="13.19"/><rect class="cls-2" y="158.47" width="137.15" height="1.9"/><rect class="cls-2" y="30.22" width="137.15" height="1.9"/><circle class="cls-2" cx="116.18" cy="14.88" r="7.18"/><path class="cls-3" d="M116.92,7.74a6.77,6.77,0,0,0-1.47,0v7.14h1.47Z"/><path class="cls-4" d="M16.92,7.7H39.63a6.64,6.64,0,0,1,6.64,6.64V24a0,0,0,0,1,0,0h-36a0,0,0,0,1,0,0V14.34A6.64,6.64,0,0,1,16.92,7.7Z"/><rect class="cls-5" x="71.87" y="8.79" width="26.45" height="10.92"/><circle class="cls-6" cx="82.3" cy="22.79" r="1.25"/><circle class="cls-6" cx="76.71" cy="22.79" r="1.25"/><circle class="cls-6" cx="87.89" cy="22.79" r="1.25"/><circle class="cls-6" cx="93.48" cy="22.79" r="1.25"/><circle class="cls-2" cx="68.57" cy="95.3" r="48.39"/><circle class="cls-7" cx="68.57" cy="95.3" r="42.97"/><path class="cls-8" d="M44.38,118.16c9.24,2.92,17.83,2,26.68,1,8.57-1,14.85-2.77,22.23-4.94,6.81-2,12.06-3.9,16.12-5.51a43,43,0,1,0-82-1.07A42.33,42.33,0,0,0,44.38,118.16Z"/><path class="cls-2" d="M82,98.52A42.89,42.89,0,0,0,99.3,133a48.36,48.36,0,0,0,3.92-71.46A43,43,0,0,0,82,98.52Z"/></g></g></svg>